<svg width="214" height="215" viewBox="0 0 214 215" fill="none" xmlns="http://www.w3.org/2000/svg">
<rect y="0.723633" width="214" height="214" rx="16" fill="#E8F2EE"/>
<g clip-path="url(#clip0_1_2125)">
<path d="M135.444 127.45C134.703 125.738 133.852 123.88 131.889 123.88H130.111C132.074 123.88 133.667 122.282 133.667 120.31V89.9599C133.668 89.4921 133.576 89.0286 133.398 88.596C133.22 88.1634 132.958 87.7701 132.628 87.4386C132.298 87.1072 131.906 86.844 131.474 86.664C131.042 86.4841 130.579 86.3911 130.111 86.3901H83.8889C81.9262 86.3901 80.3333 87.9884 80.3333 89.9599V120.31C80.3333 122.282 81.9262 123.88 83.8889 123.88H82.1111C80.1484 123.88 79.1476 125.665 78.5556 127.45L75 136.152C75 138.125 76.5929 139.723 78.5556 139.723H135.444C137.407 139.723 139 138.125 139 136.154L135.444 127.45Z" fill="#CCD6DD"/>
<path d="M75.0142 136.301L75.0249 136.403L75.3271 137.633C75.6077 138.254 76.0614 138.782 76.6339 139.153C77.2064 139.524 77.8735 139.722 78.5556 139.723H135.444C136.362 139.72 137.243 139.363 137.904 138.725C138.564 138.087 138.951 137.219 138.986 136.301H75.0142Z" fill="#9AAAB4"/>
<path d="M130.111 118.524C130.111 119.51 129.316 120.309 128.333 120.309H85.6667C84.6853 120.309 83.8889 119.51 83.8889 118.524V91.7468C83.8889 90.7601 84.6853 89.9619 85.6667 89.9619H128.333C129.316 89.9619 130.111 90.7619 130.111 91.7468V118.524Z" fill="#5DADEC"/>
<path d="M133.5 130.909L132.148 127.043C131.724 126.225 131.02 125.555 130.036 125.555H84.0844C83.1031 125.555 82.4738 126.28 82.0293 127.396L80.8062 130.911C80.4169 131.971 81.6027 132.696 82.584 132.696H96.056C96.056 132.696 97.7218 132.612 98.0169 131.615C98.3582 130.463 98.7547 128.728 98.84 128.422C98.9716 127.953 99.5298 127.478 100.362 127.478H115.612C116.5 127.478 116.938 127.928 117.053 128.484C117.128 128.847 117.608 130.513 117.832 131.652C118.029 132.668 120.003 132.694 120.003 132.694H131.725C132.705 132.694 133.889 131.857 133.5 130.909Z" fill="#AEBBC1"/>
<path d="M114.778 134.591H100.945C100.278 134.591 99.9884 133.982 100.084 133.391C100.18 132.803 100.723 130.204 100.765 129.902C100.806 129.598 101.252 129.235 101.697 129.235H114.168C114.696 129.235 115.039 129.525 115.146 130.104C115.251 130.686 115.683 133.022 115.716 133.555C115.75 134.09 115.416 134.591 114.778 134.591Z" fill="#9AAAB4"/>
</g>
<defs>
<clipPath id="clip0_1_2125">
<rect width="64" height="64" fill="white" transform="translate(75 75.7236)"/>
</clipPath>
</defs>
</svg>
