<svg width="214" height="215" viewBox="0 0 214 215" fill="none" xmlns="http://www.w3.org/2000/svg">
<rect y="0.723633" width="214" height="214" rx="16" fill="#F1DFDF"/>
<g clip-path="url(#clip0_1_2136)">
<path d="M85 119.724C88.914 119.724 92.266 121.994 93.91 125.268L100.864 121.79C97.976 115.84 91.892 111.724 84.832 111.724C82.3152 111.724 79.8273 112.261 77.534 113.298L80.87 120.638C82.1652 120.04 83.5737 119.729 85 119.724ZM129 119.724C131.934 119.724 134.544 121.01 136.376 123.02L142.17 117.75C140.502 115.856 138.45 114.339 136.15 113.299C133.85 112.26 131.356 111.723 128.832 111.724C121.68 111.724 115.528 115.946 112.686 122.024L119.982 125.468C121.586 122.084 125.006 119.724 129 119.724Z" fill="#EA596E"/>
<path d="M85 115.724C83.1615 115.724 81.341 116.086 79.6424 116.789C77.9439 117.493 76.4005 118.524 75.1005 119.824C73.8005 121.124 72.7693 122.668 72.0657 124.366C71.3621 126.065 71 127.885 71 129.724C71 131.562 71.3621 133.383 72.0657 135.081C72.7693 136.78 73.8005 138.323 75.1005 139.623C76.4005 140.923 77.9439 141.954 79.6424 142.658C81.341 143.362 83.1615 143.724 85 143.724C88.713 143.724 92.274 142.249 94.8995 139.623C97.525 136.998 99 133.437 99 129.724C99 126.011 97.525 122.45 94.8995 119.824C92.274 117.199 88.713 115.724 85 115.724ZM85 139.724C82.3478 139.724 79.8043 138.67 77.9289 136.795C76.0536 134.919 75 132.376 75 129.724C75 127.071 76.0536 124.528 77.9289 122.653C79.8043 120.777 82.3478 119.724 85 119.724C87.6522 119.724 90.1957 120.777 92.0711 122.653C93.9464 124.528 95 127.071 95 129.724C95 132.376 93.9464 134.919 92.0711 136.795C90.1957 138.67 87.6522 139.724 85 139.724ZM129 115.724C125.287 115.724 121.726 117.199 119.1 119.825C116.475 122.451 115 126.012 115 129.726C115 133.439 116.476 137 119.102 139.626C121.727 142.251 125.289 143.726 129.002 143.726C130.841 143.726 132.661 143.363 134.36 142.659C136.059 141.956 137.602 140.924 138.902 139.624C140.202 138.324 141.233 136.78 141.937 135.082C142.64 133.383 143.002 131.562 143.002 129.724C143.002 127.885 142.64 126.064 141.936 124.366C141.232 122.667 140.201 121.124 138.9 119.824C137.6 118.524 136.057 117.493 134.358 116.789C132.659 116.086 130.839 115.724 129 115.724ZM129 139.724C126.348 139.724 123.804 138.67 121.929 136.795C120.054 134.919 119 132.376 119 129.724C119 127.071 120.054 124.528 121.929 122.653C123.804 120.777 126.348 119.724 129 119.724C131.652 119.724 134.196 120.777 136.071 122.653C137.946 124.528 139 127.071 139 129.724C139 132.376 137.946 134.919 136.071 136.795C134.196 138.67 131.652 139.724 129 139.724Z" fill="#292F33"/>
<path d="M130.968 129.568C130.955 129.433 130.928 129.301 130.888 129.172C130.853 129.043 130.805 128.919 130.746 128.8C130.72 128.752 130.716 128.696 130.688 128.65L116.688 106.65C116.547 106.428 116.364 106.236 116.149 106.085C115.933 105.934 115.691 105.827 115.434 105.77C115.178 105.713 114.913 105.707 114.654 105.753C114.395 105.798 114.148 105.894 113.926 106.036C113.647 106.218 113.418 106.468 113.263 106.763C113.107 107.058 113.029 107.388 113.036 107.722H95C94.4696 107.722 93.9609 107.932 93.5858 108.307C93.2107 108.682 93 109.191 93 109.722C93 110.252 93.2107 110.761 93.5858 111.136C93.9609 111.511 94.4696 111.722 95 111.722H115C115.054 111.722 115.1 111.694 115.154 111.69L125.356 127.724H107C106.47 127.724 105.961 127.934 105.586 128.309C105.211 128.684 105 129.193 105 129.724C105 130.254 105.211 130.763 105.586 131.138C105.961 131.513 106.47 131.724 107 131.724H129.002C129.309 131.717 129.61 131.64 129.882 131.5C129.944 131.466 130.014 131.452 130.076 131.412C130.136 131.372 130.172 131.31 130.226 131.268C130.433 131.106 130.604 130.904 130.728 130.674C130.788 130.562 130.838 130.454 130.878 130.33C130.919 130.199 130.945 130.064 130.958 129.928C130.966 129.856 131 129.796 131 129.724C131 129.67 130.972 129.622 130.968 129.568Z" fill="#DD2E44"/>
<path d="M114.162 103.724L108.364 119.958L96.506 106.408C96.334 106.207 96.1239 106.042 95.8878 105.923C95.6517 105.803 95.3942 105.732 95.1304 105.713C94.8666 105.694 94.6016 105.728 94.3509 105.812C94.1001 105.896 93.8684 106.029 93.6694 106.203C93.4704 106.377 93.3078 106.589 93.1912 106.826C93.0747 107.064 93.0063 107.322 92.9902 107.586C92.9741 107.85 93.0105 108.115 93.0973 108.365C93.1841 108.614 93.3196 108.845 93.496 109.042L106.824 124.272L105.116 129.052C104.938 129.551 104.965 130.101 105.193 130.581C105.42 131.06 105.828 131.429 106.328 131.608C106.828 131.786 107.378 131.758 107.857 131.531C108.336 131.304 108.706 130.895 108.884 130.396L118.41 103.724H114.162Z" fill="#DD2E44"/>
<path d="M85 131.724C84.6594 131.723 84.3246 131.636 84.0272 131.469C83.7299 131.303 83.48 131.064 83.3011 130.774C83.1222 130.484 83.0203 130.153 83.0051 129.813C82.9898 129.473 83.0617 129.134 83.214 128.83L89.338 116.618C89.372 116.562 93 111.026 93 105.724C93 99.2397 88.414 97.6377 88.368 97.6217C88.1157 97.5412 87.8818 97.4114 87.6801 97.2398C87.4783 97.0681 87.3126 96.8582 87.1927 96.622C87.0727 96.3858 87.0009 96.1282 86.9813 95.8641C86.9618 95.5999 86.9949 95.3345 87.0787 95.0833C87.1625 94.832 87.2955 94.5999 87.4697 94.4004C87.644 94.201 87.8562 94.0381 88.0939 93.9213C88.3316 93.8045 88.5902 93.7361 88.8545 93.72C89.1189 93.7039 89.3839 93.7405 89.634 93.8277C89.934 93.9277 97 96.3897 97 105.724C97 111.86 93.328 117.808 92.738 118.718L86.79 130.616C86.6247 130.949 86.3695 131.229 86.0531 131.425C85.7368 131.621 85.372 131.724 85 131.724Z" fill="#DD2E44"/>
<path d="M100.224 99.0496C100.113 99.0501 100.003 99.0408 99.894 99.0216L87.894 97.0216C87.3707 96.9343 86.9035 96.6428 86.5952 96.2111C86.2869 95.7794 86.1627 95.2429 86.25 94.7196C86.3373 94.1963 86.6288 93.7291 87.0605 93.4208C87.4922 93.1125 88.0287 92.9883 88.552 93.0756L100.552 95.0756C101.049 95.1564 101.496 95.4214 101.806 95.8178C102.116 96.2142 102.265 96.7127 102.224 97.2141C102.182 97.7155 101.954 98.1829 101.583 98.5231C101.212 98.8633 100.727 99.0513 100.224 99.0496ZM123.766 105.724C123.706 105.724 123.647 105.72 123.588 105.712L112.244 104.296C111.875 104.265 111.533 104.091 111.29 103.811C111.048 103.531 110.925 103.167 110.948 102.797C110.971 102.428 111.137 102.082 111.412 101.834C111.687 101.585 112.048 101.455 112.418 101.47C112.5 101.47 120.552 101.434 124.396 98.8716C124.642 98.7085 124.933 98.6259 125.228 98.6353C125.523 98.6446 125.809 98.7453 126.044 98.9236C126.278 99.1039 126.45 99.3524 126.536 99.6348C126.623 99.9171 126.619 100.219 126.526 100.5L125.108 104.754C125.015 105.036 124.835 105.282 124.594 105.456C124.353 105.631 124.063 105.724 123.766 105.724Z" fill="#292F33"/>
<path d="M111 129.724C111 130.784 110.579 131.802 109.828 132.552C109.078 133.302 108.061 133.724 107 133.724C105.939 133.724 104.922 133.302 104.172 132.552C103.421 131.802 103 130.784 103 129.724C103 128.663 103.421 127.645 104.172 126.895C104.922 126.145 105.939 125.724 107 125.724C108.061 125.724 109.078 126.145 109.828 126.895C110.579 127.645 111 128.663 111 129.724Z" fill="#66757F"/>
</g>
<defs>
<clipPath id="clip0_1_2136">
<rect width="72" height="72" fill="white" transform="translate(71 71.7236)"/>
</clipPath>
</defs>
</svg>
