<svg width="214" height="215" viewBox="0 0 214 215" fill="none" xmlns="http://www.w3.org/2000/svg">
<rect y="0.723633" width="214" height="214" rx="16" fill="#DFE1F1"/>
<g clip-path="url(#clip0_1_2149)">
<path d="M125.667 116.789C125.523 116.934 125.351 117.049 125.162 117.128C124.974 117.206 124.771 117.247 124.567 117.247C124.362 117.247 124.16 117.206 123.971 117.128C123.783 117.049 123.611 116.934 123.467 116.789L121.268 114.59C121.123 114.446 121.008 114.274 120.929 114.086C120.851 113.897 120.81 113.694 120.81 113.49C120.81 113.286 120.851 113.083 120.929 112.894C121.008 112.706 121.123 112.534 121.268 112.39L125.667 107.991C125.811 107.847 125.982 107.732 126.171 107.654C126.36 107.575 126.562 107.535 126.766 107.535C126.971 107.535 127.173 107.575 127.362 107.654C127.55 107.732 127.722 107.847 127.866 107.991L130.066 110.191C130.211 110.335 130.326 110.506 130.404 110.695C130.483 110.884 130.523 111.086 130.523 111.29C130.523 111.495 130.483 111.697 130.404 111.886C130.326 112.075 130.211 112.246 130.066 112.39L125.667 116.789ZM102.333 93.456C102.189 93.6009 102.018 93.716 101.829 93.7945C101.64 93.873 101.438 93.9134 101.234 93.9134C101.029 93.9134 100.827 93.873 100.638 93.7945C100.449 93.716 100.278 93.6009 100.134 93.456L97.9342 91.2564C97.7893 91.1123 97.6742 90.9409 97.5957 90.7522C97.5172 90.5634 97.4768 90.3611 97.4768 90.1566C97.4768 89.9522 97.5172 89.7498 97.5957 89.5611C97.6742 89.3724 97.7893 89.201 97.9342 89.0569L102.333 84.6578C102.478 84.5132 102.649 84.3985 102.838 84.3202C103.027 84.2419 103.229 84.2017 103.433 84.2017C103.637 84.2017 103.84 84.2419 104.028 84.3202C104.217 84.3985 104.389 84.5132 104.533 84.6578L106.732 86.8573C106.877 87.0014 106.992 87.1728 107.071 87.3615C107.149 87.5503 107.19 87.7527 107.19 87.9571C107.19 88.1615 107.149 88.3639 107.071 88.5526C106.992 88.7414 106.877 88.9127 106.732 89.0569L102.333 93.456Z" fill="#66757F"/>
<path d="M82.1111 113.946C85.2222 113.946 99.2222 115.501 99.2222 115.501C99.2222 115.501 100.778 129.501 100.778 132.612C100.778 135.723 97.6667 135.723 96.1111 134.168C94.5556 132.612 89.8889 124.835 89.8889 124.835C89.8889 124.835 82.1111 120.168 80.5556 118.612C79 117.057 79 113.946 82.1111 113.946ZM85.2222 89.1175C89.8889 89.0568 124.111 90.6123 124.111 90.6123C124.111 90.6123 125.548 124.835 125.608 129.501C125.667 134.168 121.31 135.727 119.6 129.503C117.89 123.279 111.667 103.057 111.667 103.057C111.667 103.057 89.9589 96.1859 85.2144 95.1203C79 93.7235 80.554 89.1766 85.2222 89.1175Z" fill="#55ACEE"/>
<path d="M121 84.3903C124.111 81.2792 131.889 79.7236 133.444 81.2792C135 82.8348 133.444 90.6125 130.333 93.7236C127.222 96.8348 100.778 121.724 100.778 121.724C100.778 121.724 90.6667 128.724 88.3333 126.39C86 124.057 93 113.946 93 113.946C93 113.946 117.889 87.5014 121 84.3903Z" fill="#CCD6DD"/>
<path d="M100.778 113.946C100.778 113.946 101.556 114.723 94.5556 121.723C87.5556 128.723 86.7778 127.946 86.7778 127.946C86.7778 127.946 86 127.168 93 120.168C100 113.168 100.778 113.946 100.778 113.946ZM124.111 85.9457C125.349 85.9457 126.536 86.4374 127.411 87.3125C128.286 88.1877 128.778 89.3747 128.778 90.6124H130.03C130.207 90.1224 130.333 89.609 130.333 89.0568C130.333 87.8191 129.842 86.6321 128.967 85.757C128.091 84.8818 126.904 84.3901 125.667 84.3901C125.114 84.3901 124.601 84.5161 124.111 84.6935V85.9457Z" fill="#66757F"/>
</g>
<defs>
<clipPath id="clip0_1_2149">
<rect width="56" height="56" fill="white" transform="translate(79 79.7236)"/>
</clipPath>
</defs>
</svg>
