<svg width="98" height="61" viewBox="0 0 98 61" fill="none" xmlns="http://www.w3.org/2000/svg">
<rect x="0.135132" y="0.563965" width="97.5022" height="60" rx="10" fill="#F8F8F8"/>
<g clip-path="url(#clip0_1_2221)">
<path d="M55.4408 28.6106H53.8081C53.7745 28.477 53.7495 28.322 53.7329 28.1461C53.6996 27.8037 53.6996 27.4588 53.7329 27.1164C53.7495 26.9408 53.7745 26.786 53.8081 26.6516H57.8771V39.5363C57.6734 39.5717 57.468 39.5967 57.2617 39.6112C57.0569 39.6269 56.8515 39.6352 56.646 39.6361C56.4492 39.6348 56.2525 39.6265 56.0562 39.6112C55.85 39.5966 55.6448 39.5714 55.4412 39.5359V28.6101V28.6104L55.4408 28.6106ZM69.6059 31.8509C69.6059 31.3819 69.543 30.9341 69.4178 30.5068C69.292 30.0801 69.1073 29.7077 68.8652 29.3893C68.6219 29.0715 68.3123 28.8159 67.9356 28.6235C67.5589 28.4309 67.1109 28.3345 66.5919 28.3345C65.5705 28.3345 64.7877 28.6447 64.2436 29.2639C63.6994 29.8833 63.3689 30.7456 63.2515 31.8509H69.606H69.6059ZM63.2265 33.7093C63.26 35.1158 63.6242 36.1457 64.3191 36.7984C65.0136 37.4513 66.0394 37.7783 67.3957 37.7783C68.5842 37.7783 69.7145 37.5687 70.7861 37.1501C70.9197 37.4013 71.0285 37.7069 71.1123 38.0669C71.1945 38.4174 71.245 38.7746 71.2629 39.1342C70.7108 39.3692 70.1033 39.5443 69.4424 39.6618C68.7805 39.7786 68.0481 39.8376 67.2449 39.8376C66.0724 39.8376 65.0676 39.6738 64.2309 39.3476C63.3935 39.0208 62.7029 38.5603 62.1587 37.9662C61.6146 37.3719 61.2167 36.6686 60.9656 35.8563C60.7146 35.0445 60.5887 34.1528 60.5887 33.1816C60.5887 32.2273 60.71 31.3355 60.9529 30.5065C61.1953 29.6782 61.5686 28.9581 62.0704 28.3469C62.5729 27.7355 63.2049 27.2501 63.9668 26.8901C64.7283 26.5301 65.6282 26.3499 66.6668 26.3499C67.5541 26.3499 68.3326 26.5008 69.0026 26.8021C69.672 27.1034 70.2331 27.5179 70.6853 28.0453C71.1373 28.5729 71.4805 29.2008 71.715 29.9288C71.9493 30.6574 72.0669 31.4484 72.0669 32.3026C72.0669 32.5371 72.058 32.7839 72.0414 33.0433C72.0276 33.2653 72.0109 33.4872 71.9913 33.7088H63.226L63.2262 33.7092L63.2265 33.7093ZM74.806 26.6516C74.9808 26.6199 75.1567 26.5948 75.3334 26.5764C75.5004 26.56 75.6766 26.5515 75.8608 26.5515C76.045 26.5515 76.2289 26.56 76.4134 26.5764C76.5974 26.5934 76.765 26.6186 76.9158 26.6516C76.9656 26.9029 77.0159 27.2339 77.0659 27.6437C77.1161 28.054 77.1416 28.4012 77.1416 28.686C77.4931 28.1169 77.9578 27.6226 78.5353 27.2039C79.113 26.7856 79.8538 26.576 80.7579 26.576C80.8918 26.576 81.0298 26.5805 81.1722 26.5888C81.2941 26.5954 81.4159 26.6077 81.5364 26.6262C81.5697 26.7771 81.5954 26.9364 81.6119 27.1036C81.6284 27.2708 81.6368 27.4468 81.6368 27.6308C81.6368 27.8319 81.6243 28.0414 81.5993 28.2586C81.5752 28.4686 81.5459 28.6779 81.5116 28.8864C81.3759 28.853 81.2366 28.8361 81.0969 28.8362H80.7576C80.3057 28.8362 79.8744 28.8991 79.4642 29.0245C79.0536 29.1502 78.6855 29.3722 78.3591 29.69C78.0329 30.0083 77.7731 30.4438 77.5809 30.9964C77.3879 31.5489 77.2919 32.2605 77.2919 33.1311V39.5359C77.0882 39.5712 76.8828 39.5965 76.6764 39.6111C76.4507 39.6278 76.2454 39.636 76.0614 39.636C75.856 39.6351 75.6507 39.6268 75.4459 39.6111C75.2314 39.5955 75.0176 39.5704 74.8053 39.536V26.6517L74.806 26.6516ZM57.1788 19.7718C57.1788 20.0724 57.1245 20.3705 57.0186 20.6519C56.7372 20.7578 56.4389 20.8121 56.1382 20.8122H56.1346C55.8339 20.8122 55.5356 20.758 55.2542 20.652C55.1481 20.3706 55.0937 20.0724 55.0937 19.7716V19.7677C55.0937 19.4579 55.1506 19.1612 55.2536 18.8874C55.535 18.7812 55.8334 18.7269 56.1342 18.7271H56.1376C56.4475 18.7271 56.7441 18.784 57.0179 18.8874C57.124 19.1687 57.1783 19.467 57.1781 19.7677V19.7716H57.1785L57.1788 19.7718ZM60.2477 19.0748H57.8142L59.5348 17.3541C59.2642 16.9741 58.932 16.642 58.552 16.3715L56.8311 18.0923V15.6586C56.6023 15.6201 56.3707 15.6007 56.1386 15.6006H56.1342C55.8981 15.6006 55.6669 15.6208 55.4416 15.6586V18.0923L53.7203 16.3714C53.5307 16.5063 53.3528 16.6569 53.1884 16.8215L53.1876 16.8223C53.0232 16.9869 52.8728 17.1648 52.7379 17.3542L54.4591 19.0748H52.0251C52.0251 19.0748 51.9672 19.532 51.9672 19.7684V19.7712C51.9672 20.0076 51.9872 20.2392 52.0252 20.4646H54.4593L52.7378 22.1851C53.0085 22.5651 53.3407 22.8972 53.7207 23.1679L55.4417 21.4473V23.8811C55.6667 23.9188 55.8976 23.9388 56.1334 23.939H56.1393C56.371 23.9388 56.6024 23.9194 56.831 23.8811V21.4473L58.5521 23.1683C58.7417 23.0333 58.9197 22.8827 59.0844 22.7182H59.0848C59.2491 22.5535 59.3995 22.3755 59.5344 22.1859L57.8138 20.4648H60.2478C60.2856 20.2395 60.3055 20.0086 60.3055 19.7728V19.7668C60.3055 19.5349 60.2861 19.3037 60.2478 19.0751V19.0748H60.2477ZM16.1351 39.1848L22.9164 28.6358H16.9387C16.8887 28.3345 16.8636 27.9999 16.8636 27.6314C16.8636 27.2799 16.8891 26.953 16.9392 26.6515H26.6087L26.7344 26.9786L19.9029 37.5522H26.3072C26.3574 37.8872 26.3827 38.2301 26.3827 38.5816C26.3827 38.917 26.3575 39.235 26.3074 39.5363H16.2609L16.1351 39.1844V39.1848ZM35.7001 33.4831C35.449 33.4499 35.1308 33.4168 34.7457 33.3829C34.3606 33.3497 34.0341 33.3327 33.7666 33.3327C32.7283 33.3327 31.9371 33.5253 31.3933 33.9104C30.8488 34.2958 30.5772 34.8815 30.5772 35.6685C30.5772 36.1708 30.6689 36.5643 30.8532 36.8488C31.0371 37.1339 31.2676 37.3511 31.5439 37.5019C31.8203 37.6526 32.1255 37.7448 32.4602 37.7783C32.795 37.8117 33.1133 37.8284 33.4146 37.8284C33.7998 37.8284 34.1974 37.8074 34.6077 37.7655C35.0177 37.7239 35.3819 37.6609 35.7002 37.5772V33.4831H35.7001ZM35.7001 31.0472C35.7001 30.0589 35.449 29.3724 34.9468 28.9873C34.4443 28.6021 33.716 28.4095 32.7617 28.4095C32.1752 28.4095 31.6272 28.4559 31.1167 28.5479C30.6115 28.6386 30.1123 28.76 29.6219 28.9117C29.3036 28.3591 29.145 27.6982 29.145 26.9275C29.7136 26.7436 30.3414 26.6013 31.0282 26.5008C31.7147 26.4002 32.376 26.3499 33.0126 26.3499C34.6868 26.3499 35.9592 26.7311 36.83 27.4929C37.7004 28.2553 38.1361 29.4733 38.1361 31.1474V39.2097C37.5498 39.3436 36.8384 39.4816 36.0013 39.624C35.1549 39.767 34.2979 39.8384 33.4395 39.8376C32.6191 39.8376 31.8779 39.7625 31.2169 39.6117C30.5553 39.4607 29.9943 39.2184 29.534 38.8831C29.0731 38.5485 28.7178 38.1214 28.4663 37.6025C28.2153 37.0833 28.0897 36.4556 28.0897 35.7187C28.0897 34.9989 28.2361 34.3667 28.5292 33.8222C28.8172 33.2843 29.2255 32.8202 29.7224 32.4661C30.2247 32.1066 30.8022 31.8383 31.4553 31.6628C32.1085 31.4868 32.7947 31.3988 33.5147 31.3988C34.0505 31.3988 34.49 31.4116 34.8334 31.4368C35.1764 31.4617 35.4653 31.491 35.6998 31.5246V31.0473L35.7001 31.0472ZM43.335 37.426C43.6521 37.5432 43.9804 37.6274 44.3147 37.6773C44.6495 37.7277 45.0845 37.7528 45.6208 37.7528C46.2234 37.7528 46.7757 37.6567 47.278 37.4642C47.7805 37.272 48.2116 36.9745 48.5716 36.5724C48.9316 36.1708 49.2161 35.6646 49.4254 35.0528C49.6347 34.442 49.7396 33.7181 49.7396 32.8805C49.7396 31.5411 49.4922 30.4778 48.9986 29.6908C48.5043 28.9039 47.6964 28.5104 46.575 28.5104C46.1565 28.5104 45.7543 28.5856 45.3698 28.7365C44.9841 28.8872 44.6412 29.1133 44.3397 29.4146C44.0384 29.7159 43.7957 30.0971 43.6116 30.5575C43.4269 31.0184 43.3352 31.5662 43.3352 32.2026V37.4264V37.4262L43.335 37.426ZM40.8486 26.6513C41.0189 26.6178 41.1905 26.5928 41.3634 26.5761C41.543 26.5595 41.7232 26.5512 41.9036 26.5512C42.0705 26.5512 42.2461 26.5599 42.4307 26.5761C42.6147 26.5932 42.7905 26.6184 42.9581 26.6515C42.9746 26.6855 42.9959 26.7897 43.021 26.9656C43.0459 27.1415 43.0711 27.3298 43.0964 27.5305C43.1215 27.7316 43.1465 27.9246 43.1717 28.1082C43.1968 28.2927 43.2094 28.4099 43.2094 28.4601C43.3764 28.1925 43.5775 27.9327 43.812 27.6815C44.0465 27.4303 44.3273 27.2043 44.6537 27.0036C44.9802 26.8025 45.3483 26.6436 45.7588 26.5262C46.1688 26.4091 46.6251 26.35 47.1275 26.35C47.8808 26.35 48.5799 26.4758 49.2249 26.727C49.8691 26.9786 50.4213 27.3673 50.8821 27.8948C51.3423 28.4224 51.7022 29.0922 51.9619 29.904C52.2213 30.7168 52.351 31.6752 52.351 32.7801C52.351 34.9902 51.7523 36.7194 50.555 37.9666C49.3576 39.2141 47.6628 39.8376 45.4694 39.8376C45.1009 39.8376 44.7243 39.8124 44.3392 39.7622C43.9538 39.7118 43.6192 39.6447 43.3344 39.5614V45.4637C43.1222 45.4982 42.9087 45.5233 42.6943 45.539C42.4681 45.5554 42.2628 45.5639 42.0786 45.5639C41.8733 45.563 41.6681 45.5547 41.4634 45.539C41.2572 45.5244 41.0518 45.4993 40.8482 45.4637V26.6515L40.8486 26.6513Z" fill="#FF4A00"/>
</g>
<defs>
<clipPath id="clip0_1_2221">
<rect width="65.5022" height="30" fill="white" transform="translate(16.1351 15.564)"/>
</clipPath>
</defs>
</svg>
