<svg width="126" height="61" viewBox="0 0 126 61" fill="none" xmlns="http://www.w3.org/2000/svg">
<rect y="0.563965" width="125.939" height="60" rx="10" fill="#F8F8F8"/>
<g clip-path="url(#clip0_1_2237)">
<path d="M51.0083 23.1768H45.8273C45.4727 23.1768 45.1712 23.4343 45.1159 23.7843L43.0205 37.0699C42.9788 37.3321 43.1818 37.5684 43.4477 37.5684H45.9212C46.2758 37.5684 46.5773 37.3109 46.6326 36.9601L47.1977 33.3768C47.2523 33.026 47.5545 32.7684 47.9083 32.7684H49.5485C52.9614 32.7684 54.9311 31.1169 55.4455 27.8442C55.6773 26.4124 55.4553 25.2874 54.7848 24.4995C54.0485 23.6343 52.7424 23.1768 51.0083 23.1768ZM51.6061 28.029C51.3227 29.8881 49.9023 29.8881 48.5288 29.8881H47.747L48.2955 26.4162C48.328 26.2063 48.5098 26.0518 48.722 26.0518H49.0803C50.0159 26.0518 50.8985 26.0518 51.3545 26.5851C51.6265 26.9033 51.7098 27.376 51.6061 28.029Z" fill="#253B80"/>
<path d="M66.4954 27.9692H64.0144C63.803 27.9692 63.6204 28.1237 63.5879 28.3336L63.478 29.0275L63.3045 28.776C62.7674 27.9964 61.5697 27.7358 60.3742 27.7358C57.6326 27.7358 55.2909 29.8124 54.8348 32.7252C54.5977 34.1783 54.9348 35.5677 55.7591 36.5366C56.5151 37.4275 57.597 37.7987 58.8841 37.7987C61.0932 37.7987 62.3182 36.3783 62.3182 36.3783L62.2076 37.0677C62.1659 37.3313 62.3689 37.5677 62.6333 37.5677H64.8682C65.2235 37.5677 65.5235 37.3101 65.5795 36.9593L66.9204 28.4677C66.9629 28.2063 66.7606 27.9692 66.4954 27.9692ZM63.0371 32.798C62.7977 34.2154 61.6727 35.1669 60.2379 35.1669C59.5174 35.1669 58.9417 34.9358 58.572 34.498C58.2053 34.0631 58.0659 33.4442 58.1826 32.7548C58.4061 31.3495 59.55 30.3669 60.9629 30.3669C61.6674 30.3669 62.2401 30.601 62.6174 31.0427C62.9954 31.4889 63.1454 32.1116 63.0371 32.798Z" fill="#253B80"/>
<path d="M79.7091 27.9692H77.2159C76.978 27.9692 76.7545 28.0874 76.6197 28.2851L73.1811 33.3503L71.7235 28.4829C71.6318 28.1783 71.3507 27.9692 71.0326 27.9692H68.5826C68.2848 27.9692 68.078 28.2601 68.1727 28.5405L70.9189 36.5995L68.3371 40.2442C68.1341 40.5314 68.3386 40.9261 68.6894 40.9261H71.1795C71.4159 40.9261 71.6371 40.8109 71.7712 40.617L80.0636 28.6473C80.2621 28.3609 80.0583 27.9692 79.7091 27.9692Z" fill="#253B80"/>
<path d="M87.9636 23.1768H82.7818C82.428 23.1768 82.1265 23.4343 82.0712 23.7843L79.9758 37.0699C79.9341 37.3321 80.1371 37.5684 80.4015 37.5684H83.0606C83.3076 37.5684 83.5189 37.3881 83.5576 37.1427L84.1523 33.3768C84.2068 33.026 84.5091 32.7684 84.8629 32.7684H86.5023C89.9159 32.7684 91.8849 31.1169 92.4 27.8442C92.6326 26.4124 92.4091 25.2874 91.7386 24.4995C91.003 23.6343 89.6977 23.1768 87.9636 23.1768ZM88.5614 28.029C88.2788 29.8881 86.8583 29.8881 85.4841 29.8881H84.703L85.2523 26.4162C85.2849 26.2063 85.4652 26.0518 85.678 26.0518H86.0364C86.9712 26.0518 87.8545 26.0518 88.3106 26.5851C88.5826 26.9033 88.6652 27.376 88.5614 28.029Z" fill="#179BD7"/>
<path d="M103.45 27.9692H100.97C100.758 27.9692 100.576 28.1237 100.545 28.3336L100.435 29.0275L100.261 28.776C99.7235 27.9964 98.5265 27.7358 97.331 27.7358C94.5894 27.7358 92.2485 29.8124 91.7924 32.7252C91.556 34.1783 91.8917 35.5677 92.7159 36.5366C93.4735 37.4275 94.5538 37.7987 95.8409 37.7987C98.05 37.7987 99.275 36.3783 99.275 36.3783L99.1644 37.0677C99.1227 37.3313 99.3257 37.5677 99.5917 37.5677H101.826C102.18 37.5677 102.481 37.3101 102.536 36.9593L103.878 28.4677C103.919 28.2063 103.716 27.9692 103.45 27.9692ZM99.9917 32.798C99.7538 34.2154 98.6273 35.1669 97.1924 35.1669C96.4735 35.1669 95.8962 34.9358 95.5265 34.498C95.1598 34.0631 95.022 33.4442 95.1371 32.7548C95.3621 31.3495 96.5045 30.3669 97.9174 30.3669C98.622 30.3669 99.1947 30.601 99.572 31.0427C99.9515 31.4889 100.102 32.1116 99.9917 32.798Z" fill="#179BD7"/>
<path d="M106.375 23.5414L104.248 37.0702C104.207 37.3323 104.41 37.5687 104.674 37.5687H106.812C107.167 37.5687 107.469 37.3111 107.523 36.9604L109.62 23.6755C109.662 23.4134 109.459 23.1763 109.195 23.1763H106.801C106.589 23.177 106.408 23.3316 106.375 23.5414Z" fill="#179BD7"/>
<path d="M21.5045 40.1504L21.9008 37.6338L21.0182 37.6133H16.8038L19.7326 19.0429C19.7417 18.9868 19.7712 18.9345 19.8144 18.8974C19.8576 18.8603 19.9129 18.8398 19.9705 18.8398H27.0765C29.4356 18.8398 31.0636 19.3308 31.9136 20.2997C32.3121 20.7542 32.5659 21.2292 32.6886 21.752C32.8174 22.3004 32.8197 22.9558 32.6939 23.755L32.6848 23.8133V24.3254L33.0833 24.5512C33.4189 24.7292 33.6856 24.933 33.8901 25.1664C34.2311 25.555 34.4515 26.0489 34.5447 26.6345C34.6409 27.2368 34.6091 27.9535 34.4515 28.7648C34.2697 29.6982 33.9758 30.5111 33.5788 31.1762C33.2136 31.7891 32.7485 32.2974 32.1962 32.6914C31.6689 33.0656 31.0424 33.3497 30.3341 33.5315C29.6477 33.7103 28.8651 33.8004 28.0068 33.8004H27.4538C27.0583 33.8004 26.6742 33.9429 26.3727 34.1982C26.0705 34.4588 25.8705 34.8148 25.8091 35.2042L25.7674 35.4308L25.0674 39.8664L25.0356 40.0292C25.0273 40.0808 25.0129 40.1065 24.9917 40.1239C24.9727 40.1398 24.9455 40.1504 24.9189 40.1504H21.5045Z" fill="#253B80"/>
<path d="M33.4606 23.8721C33.4394 24.0077 33.4151 24.1463 33.3879 24.2887C32.4508 29.1001 29.2447 30.7622 25.15 30.7622H23.0651C22.5644 30.7622 22.1424 31.1259 22.0644 31.6198L20.997 38.3895L20.6947 40.3084C20.6439 40.6327 20.8939 40.9251 21.2212 40.9251H24.9189C25.3568 40.9251 25.7288 40.6069 25.7977 40.1751L25.8341 39.9872L26.5303 35.569L26.575 35.3266C26.6432 34.8933 27.0159 34.5751 27.4538 34.5751H28.0068C31.5894 34.5751 34.3939 33.1206 35.2136 28.9115C35.5561 27.1531 35.3788 25.6849 34.4727 24.6524C34.1985 24.341 33.8583 24.0827 33.4606 23.8721Z" fill="#179BD7"/>
<path d="M32.4803 23.4814C32.3371 23.4397 32.1894 23.4018 32.0379 23.3677C31.8856 23.3344 31.7295 23.3049 31.5689 23.2791C31.0068 23.1882 30.3909 23.145 29.7311 23.145H24.1614C24.0242 23.145 23.8939 23.1761 23.7773 23.2321C23.5205 23.3556 23.3295 23.5988 23.2833 23.8965L22.0985 31.4011L22.0644 31.62C22.1424 31.1261 22.5644 30.7624 23.0651 30.7624H25.15C29.2447 30.7624 32.4508 29.0996 33.3879 24.289C33.4159 24.1465 33.4394 24.0079 33.4606 23.8723C33.2235 23.7465 32.9667 23.639 32.6901 23.5473C32.622 23.5246 32.5515 23.5026 32.4803 23.4814Z" fill="#222D65"/>
<path d="M23.2833 23.8965C23.3296 23.5988 23.5205 23.3556 23.7773 23.2329C23.8947 23.1768 24.0242 23.1458 24.1614 23.1458H29.7311C30.3909 23.1458 31.0068 23.189 31.5689 23.2799C31.7296 23.3056 31.8856 23.3352 32.0379 23.3685C32.1894 23.4026 32.3371 23.4405 32.4803 23.4821C32.5515 23.5034 32.622 23.5253 32.6909 23.5473C32.9674 23.639 33.2242 23.7473 33.4614 23.8723C33.7402 22.0943 33.4591 20.8837 32.4977 19.7875C31.4379 18.5806 29.525 18.064 27.0773 18.064H19.9712C19.4712 18.064 19.0447 18.4276 18.9674 18.9223L16.0076 37.6837C15.9492 38.0549 16.2356 38.3897 16.6099 38.3897H20.997L22.0985 31.4011L23.2833 23.8965Z" fill="#253B80"/>
</g>
<defs>
<clipPath id="clip0_1_2237">
<rect width="93.9394" height="25" fill="white" transform="translate(16 18.064)"/>
</clipPath>
</defs>
</svg>
