<svg width="163" height="61" viewBox="0 0 163 61" fill="none" xmlns="http://www.w3.org/2000/svg">
<rect x="0.0113525" y="0.563965" width="162.316" height="60" rx="10" fill="#F8F8F8"/>
<g clip-path="url(#clip0_1_2270)">
<path fill-rule="evenodd" clip-rule="evenodd" d="M67.4333 37.6201C62.6175 41.1741 55.6357 43.0641 49.6233 43.0641C41.1974 43.0641 33.6095 39.9493 27.8672 34.7645C27.4169 34.3569 27.8185 33.801 28.3604 34.1163C34.5552 37.7212 42.2169 39.8925 50.129 39.8925C55.4667 39.8925 61.3344 38.7843 66.7334 36.4942C67.5477 36.1495 68.2306 37.0309 67.4333 37.6201Z" fill="#F79C34"/>
<path fill-rule="evenodd" clip-rule="evenodd" d="M69.4377 35.3316C68.8212 34.5431 65.3661 34.958 63.8135 35.144C63.3432 35.2009 63.2702 34.7897 63.6939 34.4922C66.4506 32.5557 70.9681 33.1145 71.493 33.7635C72.0216 34.4168 71.3535 38.9461 68.771 41.107C68.3731 41.4393 67.9951 41.2621 68.1715 40.8235C68.7533 39.3714 70.0541 36.1215 69.4377 35.3316Z" fill="#F79C34"/>
<path fill-rule="evenodd" clip-rule="evenodd" d="M63.9228 20.8131V18.932C63.9243 18.6456 64.1398 18.4551 64.3997 18.4558L72.8322 18.4551C73.1017 18.4551 73.3187 18.6507 73.3187 18.9298V20.5429C73.3158 20.8138 73.0877 21.1667 72.6838 21.7271L68.3155 27.964C69.9367 27.9263 71.6517 28.1692 73.1253 28.9968C73.4575 29.1836 73.5469 29.4605 73.5727 29.7314V31.7388C73.5727 32.0156 73.27 32.3353 72.9511 32.1692C70.3561 30.8093 66.912 30.6609 64.0416 32.1854C63.7485 32.3419 63.4422 32.0259 63.4422 31.7491V29.8407C63.4422 29.5358 63.4481 29.0131 63.7559 28.548L68.816 21.2878L64.41 21.2871C64.1406 21.2871 63.9243 21.0951 63.9228 20.8131Z" fill="#333E47"/>
<path fill-rule="evenodd" clip-rule="evenodd" d="M33.1635 32.5644H30.5981C30.3537 32.5488 30.1588 32.3658 30.1389 32.131L30.1411 18.964C30.1411 18.7011 30.3626 18.4907 30.6364 18.4907L33.0255 18.49C33.275 18.5025 33.4758 18.6915 33.4913 18.9322V20.6509H33.5401C34.1624 18.9883 35.3355 18.2124 36.9162 18.2124C38.5204 18.2124 39.5267 18.9883 40.245 20.6509C40.8674 18.9883 42.2804 18.2124 43.7887 18.2124C44.8666 18.2124 46.0397 18.6561 46.758 19.6535C47.5723 20.7624 47.4055 22.3689 47.4055 23.7819L47.4025 32.0911C47.4025 32.3532 47.1818 32.5644 46.9079 32.5644H44.3461C44.0877 32.5481 43.8854 32.3443 43.8854 32.0919L43.8847 25.1115C43.8847 24.5578 43.9327 23.1728 43.8123 22.6464C43.6211 21.759 43.0468 21.5095 42.3048 21.5095C41.6817 21.5095 41.035 21.9252 40.7714 22.5896C40.5078 23.2555 40.5322 24.3629 40.5322 25.1115V32.0911C40.5322 32.3532 40.3107 32.5644 40.0376 32.5644H37.475C37.2174 32.5481 37.0144 32.3443 37.0144 32.0919L37.0114 25.1115C37.0114 23.6431 37.2513 21.4829 35.4315 21.4829C33.5873 21.4829 33.6597 23.5877 33.6597 25.1115L33.6582 32.0911C33.6582 32.3532 33.4367 32.5644 33.1635 32.5644Z" fill="#333E47"/>
<path fill-rule="evenodd" clip-rule="evenodd" d="M80.601 20.9004C78.7096 20.9004 78.59 23.4763 78.59 25.0835C78.59 26.6907 78.5663 30.1266 80.5781 30.1266C82.5655 30.1266 82.6615 27.3559 82.6615 25.666C82.6615 24.5578 82.6128 23.2275 82.2776 22.1747C81.9904 21.26 81.4153 20.9004 80.601 20.9004ZM80.5781 18.2124C84.3854 18.2124 86.4444 21.4829 86.4444 25.6386C86.4444 29.6548 84.1698 32.8419 80.5781 32.8419C76.8417 32.8419 74.8063 29.5721 74.8063 25.4999C74.8063 21.3988 76.8654 18.2124 80.5781 18.2124Z" fill="#333E47"/>
<path fill-rule="evenodd" clip-rule="evenodd" d="M91.3827 32.5644H88.8261C88.5699 32.5481 88.3661 32.3443 88.3661 32.0919L88.3617 18.9204C88.3838 18.679 88.5965 18.4907 88.8549 18.4907L91.2343 18.49C91.4587 18.5018 91.6433 18.6539 91.6906 18.8584V20.8724H91.7385C92.4576 19.071 93.4624 18.2124 95.2342 18.2124C96.3837 18.2124 97.5096 18.628 98.2279 19.7642C98.8983 20.817 98.8983 22.5896 98.8983 23.8646V32.1502C98.8702 32.3835 98.6605 32.5644 98.4066 32.5644H95.8352C95.5975 32.5496 95.4063 32.3746 95.3782 32.1502V25.0015C95.3782 23.5604 95.5465 21.4541 93.7739 21.4541C93.1516 21.4541 92.5765 21.8698 92.2893 22.5069C91.9297 23.3109 91.8818 24.1141 91.8818 25.0015V32.0911C91.8773 32.3532 91.6559 32.5644 91.3827 32.5644Z" fill="#333E47"/>
<path fill-rule="evenodd" clip-rule="evenodd" d="M59.7863 32.5316C59.6172 32.6837 59.3729 32.6941 59.1809 32.5914C58.3289 31.8834 58.1761 31.5564 57.7103 30.8816C56.3024 32.3161 55.305 32.7465 53.4807 32.7465C51.3213 32.7465 49.641 31.4132 49.641 28.748C49.641 26.6654 50.7698 25.2494 52.377 24.5554C53.7687 23.9441 55.7125 23.8334 57.2009 23.6665V23.3336C57.2009 22.7215 57.2489 22.001 56.8886 21.4731C56.5763 21.0006 55.9768 20.8065 55.449 20.8065C54.47 20.8065 53.6011 21.3077 53.387 22.3465C53.3419 22.5776 53.1736 22.8072 52.9418 22.819L50.4546 22.5495C50.2449 22.5015 50.0116 22.3332 50.0714 22.0128C50.6362 19.0383 53.2925 18.111 55.7066 18.0859H55.8971C57.1329 18.1014 58.7114 18.4403 59.6726 19.3624C60.921 20.5289 60.7999 22.0837 60.7999 23.778V27.7742C60.7999 28.9769 61.2997 29.504 61.7685 30.1515C61.9332 30.3855 61.9693 30.6623 61.7604 30.8336C61.2362 31.2729 60.3053 32.0813 59.7937 32.5376L59.7863 32.5316ZM57.2009 26.277C57.2009 27.2766 57.2245 28.1094 56.721 28.9983C56.3127 29.7196 55.6645 30.164 54.9447 30.164C53.9613 30.164 53.3855 29.4147 53.3855 28.3036C53.3855 26.1183 55.3449 25.7211 57.2009 25.7211V26.277Z" fill="#333E47"/>
<path fill-rule="evenodd" clip-rule="evenodd" d="M26.1574 32.5316C25.9876 32.6837 25.7425 32.6941 25.5513 32.5914C24.6986 31.8834 24.5457 31.5564 24.0806 30.8816C22.672 32.3161 21.6754 32.7465 19.8511 32.7465C17.6917 32.7465 16.0114 31.4132 16.0114 28.748C16.0114 26.6654 17.1387 25.2494 18.7474 24.5554C20.139 23.9441 22.0829 23.8334 23.5705 23.6665V23.3336C23.5705 22.7215 23.6192 22.001 23.2589 21.4731C22.9467 21.0006 22.3464 20.8065 21.8193 20.8065C20.8404 20.8065 19.97 21.3077 19.7573 22.3465C19.713 22.5776 19.544 22.8072 19.3114 22.819L16.8249 22.5495C16.6145 22.5015 16.3812 22.3332 16.4418 22.0128C17.0051 19.0383 19.6621 18.111 22.077 18.0859H22.2674C23.5033 18.1014 25.0817 18.4403 26.043 19.3624C27.2906 20.5289 27.1703 22.0837 27.1703 23.778V27.7742C27.1703 28.9769 27.6701 29.504 28.1389 30.1515C28.3021 30.3855 28.3397 30.6623 28.1308 30.8336C27.6066 31.2729 26.6749 32.0813 26.1633 32.5376L26.1574 32.5316ZM23.5705 26.277C23.5705 27.2766 23.5949 28.1094 23.0906 28.9983C22.6831 29.7196 22.0349 30.164 21.3143 30.164C20.331 30.164 19.7551 29.4147 19.7551 28.3036C19.7551 26.1183 21.7152 25.7211 23.5705 25.7211V26.277Z" fill="#333E47"/>
<path fill-rule="evenodd" clip-rule="evenodd" d="M133.967 37.2876C133.967 36.9539 133.967 36.6542 133.967 36.3205C133.967 36.0451 134.102 35.8554 134.389 35.8724C134.925 35.9484 135.683 36.0245 136.221 35.9137C136.924 35.7675 137.429 35.2692 137.727 34.5863C138.147 33.6251 138.425 32.8499 138.601 32.3412L133.264 19.1203C133.174 18.8959 133.147 18.4795 133.595 18.4795H135.461C135.817 18.4795 135.962 18.7054 136.041 18.9269L139.911 29.6657L143.604 18.9269C143.679 18.7069 143.831 18.4795 144.184 18.4795H145.943C146.388 18.4795 146.363 18.8951 146.274 19.1203L140.98 32.7539C140.295 34.5686 139.383 37.4589 137.327 37.9609C136.297 38.2304 134.997 38.1329 134.233 37.8133C134.041 37.7166 133.967 37.4582 133.967 37.2876Z" fill="#333E47"/>
<path fill-rule="evenodd" clip-rule="evenodd" d="M131.478 31.7589C131.478 32.0047 131.277 32.2062 131.029 32.2062H129.714C129.429 32.2062 129.235 32.001 129.199 31.7589L129.067 30.8633C128.462 31.375 127.72 31.8246 126.916 32.1376C125.368 32.7385 123.584 32.8382 122.073 31.9095C120.979 31.2384 120.399 29.9265 120.399 28.5732C120.399 27.5264 120.721 26.4884 121.437 25.7346C122.391 24.7047 123.775 24.199 125.446 24.199C126.455 24.199 127.899 24.3178 128.949 24.6611V22.859C128.949 21.0266 128.178 20.2337 126.144 20.2337C124.589 20.2337 123.4 20.4685 121.745 20.9831C121.48 20.9919 121.325 20.7904 121.325 20.5445V19.5169C121.325 19.2703 121.535 19.0318 121.763 18.9595C122.945 18.4442 124.62 18.123 126.4 18.064C128.72 18.064 131.478 18.5874 131.478 22.1562V31.7589ZM128.949 29.1277V26.4086C128.067 26.1672 126.605 26.0668 126.04 26.0668C125.147 26.0668 124.168 26.2779 123.658 26.828C123.276 27.2311 123.103 27.8099 123.103 28.3695C123.103 29.093 123.353 29.8187 123.938 30.1775C124.617 30.6389 125.671 30.5828 126.661 30.3015C127.612 30.0313 128.506 29.5536 128.949 29.1277Z" fill="#333E47"/>
<path fill-rule="evenodd" clip-rule="evenodd" d="M112.08 20.2745C114.999 20.2745 115.794 22.5698 115.794 25.198C115.811 26.9699 115.485 28.5498 114.567 29.4542C113.881 30.1312 113.114 30.3157 111.959 30.3157C110.931 30.3157 109.58 29.7797 108.57 29.0333V21.5185C109.621 20.7108 110.962 20.2745 112.08 20.2745ZM108.122 37.7597H106.36C106.113 37.7597 105.912 37.5581 105.912 37.3123C105.912 31.192 105.912 25.0711 105.912 18.9508C105.912 18.705 106.113 18.5034 106.36 18.5034H107.709C107.992 18.5034 108.186 18.7087 108.223 18.9508L108.364 19.9128C109.628 18.7913 111.254 18.0723 112.804 18.0723C117.144 18.0723 118.571 21.6484 118.571 25.3671C118.571 29.3456 116.388 32.5423 112.696 32.5423C111.141 32.5423 109.687 31.9687 108.57 30.972V37.3123C108.57 37.5581 108.368 37.7597 108.122 37.7597Z" fill="#333E47"/>
</g>
<defs>
<clipPath id="clip0_1_2270">
<rect width="130.316" height="25" fill="white" transform="translate(16.0114 18.064)"/>
</clipPath>
</defs>
</svg>
