<svg width="153" height="61" viewBox="0 0 153 61" fill="none" xmlns="http://www.w3.org/2000/svg">
<rect x="0.637329" y="0.563965" width="151.725" height="60" rx="10" fill="#F8F8F8"/>
<g clip-path="url(#clip0_1_2224)">
<path d="M41.2591 33.5892C39.5895 40.2856 32.8072 44.361 26.1101 42.6911C19.4156 41.0216 15.3403 34.2388 17.0106 27.5429C18.6793 20.8457 25.4616 16.77 32.1568 18.4395C38.8536 20.109 42.9286 26.8925 41.2591 33.5892Z" fill="#F7931A"/>
<path d="M34.6459 28.7845C34.8947 27.1212 33.6283 26.2271 31.8967 25.6306L32.4584 23.3775L31.0869 23.0357L30.5401 25.2294C30.1795 25.1396 29.8092 25.0548 29.4413 24.9709L29.992 22.7627L28.6214 22.4209L28.0593 24.6732C27.7608 24.6052 27.4679 24.5381 27.1835 24.4674L27.1851 24.4603L25.2937 23.9881L24.9288 25.4529C24.9288 25.4529 25.9464 25.6861 25.9249 25.7005C26.4804 25.8392 26.5808 26.2068 26.564 26.4982L25.9241 29.0649C25.9624 29.0747 26.012 29.0888 26.0667 29.1106C26.021 29.0993 25.9722 29.0868 25.9218 29.0747L25.0249 32.6704C24.957 32.8391 24.7847 33.0922 24.3964 32.9961C24.4101 33.016 23.3996 32.7473 23.3996 32.7473L22.7187 34.3172L24.5035 34.7621C24.8355 34.8453 25.1609 34.9324 25.4812 35.0144L24.9136 37.2933L26.2835 37.6351L26.8456 35.3805C27.2198 35.482 27.5831 35.5758 27.9386 35.6641L27.3784 37.9082L28.7499 38.25L29.3174 35.9754C31.6561 36.4179 33.4146 36.2394 34.1549 34.1242C34.7513 32.4211 34.1252 31.4387 32.8947 30.7981C33.7908 30.5915 34.4658 30.002 34.6459 28.7845ZM31.5123 33.1785C31.0885 34.8816 28.221 33.961 27.2913 33.7301L28.0444 30.711C28.9741 30.943 31.9553 31.4024 31.5123 33.1785ZM31.9365 28.7599C31.5498 30.3091 29.1631 29.522 28.3889 29.329L29.0717 26.5908C29.846 26.7837 32.3393 27.1439 31.9365 28.7599Z" fill="white"/>
<path d="M53.2667 25.6286C54.2803 25.6286 55.1561 25.8102 55.892 26.1669C56.6315 26.527 57.2416 27.0122 57.7311 27.6223C58.2139 28.2356 58.5732 28.9524 58.8053 29.7738C59.0357 30.5977 59.1514 31.4832 59.1514 32.4312C59.1514 33.8874 58.8846 35.2632 58.3459 36.5601C57.8072 37.8589 57.0764 38.9854 56.1467 39.9463C55.2178 40.9061 54.121 41.6627 52.8562 42.2217C51.5933 42.7811 50.2203 43.0607 48.7461 43.0607C48.5554 43.0607 48.2203 43.0553 47.7468 43.0455C47.2734 43.0357 46.7293 42.9869 46.1199 42.9045C45.5067 42.8189 44.8582 42.6924 44.1735 42.5229C43.4891 42.3565 42.8391 42.1233 42.227 41.8272L47.7004 18.8291L52.6026 18.0693L50.6429 26.2305C51.0624 26.0415 51.4851 25.895 51.9069 25.7884C52.3292 25.6833 52.7823 25.6286 53.2667 25.6286ZM49.1546 39.1717C49.8929 39.1717 50.5886 38.9901 51.2421 38.6335C51.8976 38.2764 52.4632 37.7944 52.937 37.194C53.4108 36.5909 53.7858 35.9116 54.0593 35.1527C54.3327 34.3937 54.471 33.6019 54.471 32.7781C54.471 31.766 54.3018 30.9766 53.9647 30.4059C53.6276 29.8375 53.0038 29.5516 52.098 29.5516C51.8011 29.5516 51.4187 29.6082 50.9445 29.7094C50.4687 29.8168 50.0429 30.0399 49.6613 30.3754L47.5746 39.0424C47.7004 39.0647 47.8117 39.0858 47.9066 39.1057C47.9996 39.1272 48.1023 39.1424 48.2047 39.153C48.3129 39.1651 48.4367 39.1714 48.5863 39.1714C48.7359 39.1714 48.923 39.1717 49.1546 39.1717Z" fill="#4D4D4D"/>
<path d="M64.2353 42.6205H59.5529L63.5072 25.9813H68.2215L64.2353 42.6205ZM66.5137 23.954C65.8602 23.954 65.2677 23.7595 64.7419 23.3696C64.2118 22.9822 63.9493 22.3857 63.9493 21.5818C63.9493 21.1396 64.0392 20.7248 64.2173 20.3334C64.3982 19.9427 64.6345 19.6064 64.9306 19.3205C65.2263 19.0369 65.5688 18.8103 65.9579 18.6396C66.3493 18.4717 66.7657 18.3877 67.2094 18.3877C67.8626 18.3877 68.452 18.5822 68.9797 18.9721C69.5055 19.3639 69.7699 19.9603 69.7699 20.7599C69.7699 21.2037 69.6805 21.6201 69.5008 22.0107C69.3223 22.4013 69.086 22.7376 68.7899 23.0236C68.4965 23.3075 68.1508 23.5333 67.7626 23.7025C67.3708 23.8732 66.9559 23.954 66.5137 23.954Z" fill="#4D4D4D"/>
<path d="M72.325 21.8354L77.2292 21.0757L76.0249 25.9803H81.2772L80.3288 29.8388H75.1081L73.7175 35.6591C73.5894 36.1442 73.5168 36.5973 73.4964 37.0184C73.4734 37.4414 73.5269 37.8047 73.6535 38.1106C73.7793 38.4172 74.0054 38.6535 74.3335 38.8207C74.6601 38.9906 75.1277 39.0762 75.7409 39.0762C76.246 39.0762 76.7382 39.0281 77.214 38.9328C77.687 38.8391 78.1663 38.7086 78.6514 38.5379L79.0007 42.1457C78.3679 42.3777 77.6827 42.5773 76.9444 42.7453C76.205 42.9156 75.3296 42.9976 74.3179 42.9976C72.8633 42.9976 71.7355 42.7816 70.932 42.3515C70.1297 41.9183 69.5625 41.3265 69.2231 40.5773C68.8883 39.8309 68.7387 38.9703 68.7805 38.0008C68.8239 37.029 68.9703 36.0075 69.2231 34.9317L72.325 21.8354Z" fill="#4D4D4D"/>
<path d="M81.0709 35.9758C81.0709 34.5426 81.303 33.1911 81.7666 31.9259C82.2295 30.6595 82.8963 29.5521 83.7615 28.6017C84.6236 27.656 85.674 26.9068 86.9103 26.3568C88.1407 25.81 89.5184 25.5342 91.0368 25.5342C91.9872 25.5342 92.836 25.624 93.5828 25.8041C94.3328 25.9857 95.0113 26.2205 95.625 26.515L94.0102 30.1868C93.5883 30.0158 93.1504 29.865 92.6977 29.7283C92.2446 29.5888 91.6915 29.5216 91.0372 29.5216C89.4743 29.5216 88.2388 30.0603 87.3193 31.1341C86.4033 32.2087 85.9419 33.6551 85.9419 35.4696C85.9419 36.5449 86.174 37.4145 86.6396 38.0797C87.1029 38.7449 87.9587 39.0758 89.2013 39.0758C89.8145 39.0758 90.4063 39.0117 90.9731 38.8867C91.5442 38.7602 92.0485 38.6008 92.4926 38.4125L92.8422 42.1765C92.25 42.4062 91.5969 42.6136 90.8805 42.7952C90.1626 42.9706 89.3079 43.0616 88.3169 43.0616C87.0087 43.0616 85.9013 42.8702 84.9955 42.4933C84.0892 42.1105 83.3404 41.6023 82.7506 40.9585C82.1576 40.3132 81.7319 39.5597 81.4686 38.6949C81.2053 37.8309 81.0709 36.9231 81.0709 35.9758Z" fill="#4D4D4D"/>
<path d="M101.871 43.0616C100.754 43.0616 99.7831 42.8913 98.9597 42.5542C98.1386 42.2171 97.4586 41.7441 96.9207 41.1308C96.382 40.5207 95.9789 39.7976 95.7027 38.9644C95.4266 38.1316 95.2938 37.2094 95.2938 36.1989C95.2938 34.9313 95.4973 33.6641 95.9086 32.4005C96.318 31.1341 96.9254 29.9962 97.7293 28.9849C98.5269 27.972 99.5109 27.1439 100.669 26.4982C101.827 25.8568 103.158 25.5342 104.653 25.5342C105.751 25.5342 106.716 25.7049 107.551 26.042C108.382 26.3783 109.066 26.8553 109.607 27.4654C110.142 28.0787 110.549 28.7986 110.822 29.6329C111.098 30.4642 111.234 31.3888 111.234 32.4001C111.234 33.6637 111.033 34.9309 110.635 36.1985C110.236 37.4598 109.644 38.6004 108.863 39.614C108.083 40.6254 107.108 41.4531 105.937 42.096C104.767 42.739 103.411 43.0616 101.871 43.0616ZM104.212 29.522C103.517 29.522 102.904 29.7236 102.378 30.1216C101.851 30.5243 101.408 31.0306 101.051 31.6411C100.69 32.2544 100.423 32.9231 100.242 33.6501C100.062 34.3786 99.9745 35.0672 99.9745 35.7215C99.9745 36.7774 100.145 37.5996 100.48 38.1914C100.819 38.7801 101.429 39.0762 102.315 39.0762C103.012 39.0762 103.622 38.8762 104.151 38.4738C104.675 38.0742 105.118 37.5676 105.478 36.9559C105.837 36.3457 106.106 35.675 106.287 34.9469C106.464 34.2208 106.555 33.5282 106.555 32.8751C106.555 31.822 106.385 30.9978 106.047 30.4068C105.71 29.8181 105.097 29.522 104.212 29.522Z" fill="#4D4D4D"/>
<path d="M116.336 42.6205H111.65L115.604 25.9813H120.321L116.336 42.6205ZM118.611 23.954C117.958 23.954 117.366 23.7595 116.841 23.3696C116.313 22.9822 116.049 22.3857 116.049 21.5818C116.049 21.1396 116.14 20.7248 116.318 20.3334C116.497 19.9427 116.734 19.6064 117.031 19.3205C117.325 19.0369 117.67 18.8103 118.059 18.6396C118.448 18.4717 118.864 18.3877 119.306 18.3877C119.961 18.3877 120.552 18.5822 121.079 18.9721C121.606 19.3639 121.872 19.9603 121.872 20.7599C121.872 21.2037 121.777 21.6201 121.6 22.0107C121.423 22.4013 121.186 22.7376 120.891 23.0236C120.594 23.3075 120.252 23.5333 119.863 23.7025C119.471 23.8732 119.055 23.954 118.611 23.954Z" fill="#4D4D4D"/>
<path d="M123.695 26.7379C124.051 26.634 124.448 26.509 124.879 26.373C125.312 26.2371 125.796 26.1105 126.337 25.9965C126.872 25.8789 127.475 25.7836 128.139 25.7098C128.803 25.6344 129.559 25.5977 130.399 25.5977C132.869 25.5977 134.571 26.3168 135.511 27.7508C136.45 29.1847 136.612 31.1472 136.003 33.6346L133.849 42.6189H129.136L131.223 33.8237C131.351 33.2745 131.451 32.7436 131.524 32.2249C131.599 31.7108 131.595 31.2577 131.508 30.8656C131.424 30.4781 131.228 30.1609 130.924 29.9152C130.615 29.6734 130.148 29.5519 129.515 29.5519C128.905 29.5519 128.283 29.6175 127.649 29.7441L124.58 42.6185H119.865L123.695 26.7379Z" fill="#4D4D4D"/>
</g>
<defs>
<clipPath id="clip0_1_2224">
<rect width="119.725" height="25" fill="white" transform="translate(16.6373 18.064)"/>
</clipPath>
</defs>
</svg>
