<svg width="94" height="61" viewBox="0 0 94 61" fill="none" xmlns="http://www.w3.org/2000/svg">
<rect x="0.116974" y="0.563965" width="92.8944" height="60" rx="10" fill="#F8F8F8"/>
<g clip-path="url(#clip0_1_2267)">
<path d="M27.2492 21.2871C26.5356 22.1315 25.3939 22.7976 24.2521 22.7024C24.1094 21.5606 24.6684 20.3475 25.3225 19.5982C26.0361 18.73 27.2849 18.1115 28.2959 18.064C28.4148 19.2533 27.951 20.4189 27.2492 21.2871ZM28.284 22.9284C26.6308 22.8332 25.2155 23.868 24.4305 23.868C23.6336 23.868 22.4324 22.976 21.1241 22.9997C19.4234 23.0235 17.8415 23.9869 16.9733 25.5211C15.1893 28.5897 16.5095 33.1329 18.234 35.6306C19.0785 36.8675 20.0894 38.2233 21.4215 38.1758C22.6822 38.1282 23.1817 37.3551 24.704 37.3551C26.2383 37.3551 26.6784 38.1758 28.0104 38.152C29.3901 38.1282 30.2583 36.9151 31.1027 35.6781C32.0661 34.2747 32.4586 32.907 32.4824 32.8356C32.4586 32.8118 29.8182 31.8009 29.7944 28.7562C29.7706 26.211 31.8758 24.9978 31.9709 24.9265C30.7816 23.1662 28.9262 22.976 28.284 22.9284ZM37.8344 19.4793V38.0211H40.7126V31.6819H44.6969C48.3363 31.6819 50.8934 29.1843 50.8934 25.5687C50.8934 21.9531 48.3839 19.4793 44.7921 19.4793H37.8344ZM40.7126 21.9055H44.0309C46.5285 21.9055 47.9557 23.2376 47.9557 25.5806C47.9557 27.9236 46.5285 29.2676 44.019 29.2676H40.7126V21.9055ZM56.1503 38.1639C57.9581 38.1639 59.6351 37.2481 60.3962 35.7971H60.4557V38.0211H63.1198V28.7918C63.1198 26.1158 60.979 24.3913 57.6845 24.3913C54.6279 24.3913 52.3682 26.1396 52.2849 28.5421H54.8777C55.0918 27.4003 56.1503 26.651 57.6013 26.651C59.3615 26.651 60.3487 27.4717 60.3487 28.9821V30.005L56.7569 30.2191C53.4148 30.4212 51.607 31.789 51.607 34.1677C51.607 36.5701 53.4743 38.1639 56.1503 38.1639ZM56.9234 35.9636C55.3891 35.9636 54.4138 35.2262 54.4138 34.0963C54.4138 32.9308 55.3534 32.2528 57.1493 32.1458L60.3487 31.9436V32.9902C60.3487 34.7267 58.8739 35.9636 56.9234 35.9636ZM66.676 43.064C69.4828 43.064 70.803 41.9936 71.9567 38.7466L77.0114 24.5697H74.0856L70.696 35.5235H70.6365L67.2469 24.5697H64.2378L69.1141 38.0687L68.8525 38.8894C68.4124 40.2809 67.6988 40.8161 66.4262 40.8161C66.2002 40.8161 65.7602 40.7923 65.5818 40.7685V42.9926C65.7483 43.0402 66.4619 43.064 66.676 43.064Z" fill="black"/>
</g>
<defs>
<clipPath id="clip0_1_2267">
<rect width="60.8944" height="25" fill="white" transform="translate(16.117 18.064)"/>
</clipPath>
</defs>
</svg>
