<svg width="74" height="61" viewBox="0 0 74 61" fill="none" xmlns="http://www.w3.org/2000/svg">
<rect x="0.939392" y="0.563965" width="72.625" height="60" rx="10" fill="#F8F8F8"/>
<g clip-path="url(#clip0_1_2249)">
<path d="M42.4871 20.7261H31.5979V40.2895H42.4871V20.7261Z" fill="#FF5A00"/>
<path d="M32.3228 30.5076C32.3228 26.5329 34.1913 23.0052 37.0586 20.7259C34.9484 19.0667 32.2865 18.064 29.383 18.064C22.5048 18.064 16.9394 23.6294 16.9394 30.5076C16.9394 37.3858 22.5048 42.9512 29.383 42.9512C32.2865 42.9512 34.9484 41.9485 37.0586 40.2893C34.1873 38.0422 32.3228 34.4823 32.3228 30.5076Z" fill="#EB001B"/>
<path d="M57.1778 30.5076C57.1778 37.3858 51.6124 42.9512 44.7342 42.9512C41.8307 42.9512 39.1688 41.9485 37.0586 40.2893C39.9621 38.006 41.7944 34.4823 41.7944 30.5076C41.7944 26.5329 39.9259 23.0052 37.0586 20.7259C39.1647 19.0667 41.8266 18.064 44.7301 18.064C51.6124 18.064 57.1778 23.6656 57.1778 30.5076Z" fill="#F79E1B"/>
</g>
<defs>
<clipPath id="clip0_1_2249">
<rect width="40.625" height="25" fill="white" transform="translate(16.9394 18.064)"/>
</clipPath>
</defs>
</svg>
