<svg width="96" height="61" viewBox="0 0 96 61" fill="none" xmlns="http://www.w3.org/2000/svg">
<rect x="0.162842" y="0.563965" width="94.9541" height="60" rx="10" fill="#F8F8F8"/>
<g clip-path="url(#clip0_1_2258)">
<path d="M45.9382 30.2774V37.6057H43.6133V19.5081H49.7792C50.5152 19.4927 51.2469 19.6232 51.9322 19.8921C52.6175 20.161 53.2427 20.563 53.7719 21.0748C54.3063 21.5555 54.7317 22.1451 55.0194 22.8039C55.307 23.4627 55.4503 24.1754 55.4397 24.8942C55.455 25.6168 55.3139 26.3342 55.026 26.9972C54.7381 27.6601 54.3103 28.253 53.7719 28.7352C52.6937 29.7634 51.3628 30.2769 49.7792 30.276H45.9382V30.2774ZM45.9382 21.7361V28.0537H49.837C50.2644 28.0663 50.6897 27.9896 51.0858 27.8285C51.4819 27.6674 51.84 27.4254 52.1373 27.1179C52.4329 26.8305 52.6679 26.4867 52.8284 26.1068C52.9889 25.727 53.0716 25.3188 53.0716 24.9065C53.0716 24.4941 52.9889 24.0859 52.8284 23.7061C52.6679 23.3262 52.4329 22.9824 52.1373 22.695C51.8438 22.381 51.4869 22.1331 51.0903 21.9675C50.6938 21.802 50.2665 21.7226 49.837 21.7347H45.9382V21.7361Z" fill="#5F6368"/>
<path d="M60.7969 24.8188C62.5153 24.8188 63.8717 25.278 64.8661 26.1964C65.8606 27.1148 66.3573 28.374 66.3563 29.9739V37.6055H64.1326V35.8871H64.0315C63.0688 37.3022 61.7885 38.0098 60.1904 38.0098C58.8263 38.0098 57.6851 37.6055 56.7667 36.7968C56.326 36.4257 55.9736 35.9609 55.7353 35.4363C55.497 34.9117 55.3787 34.3405 55.3891 33.7644C55.3891 32.4831 55.8734 31.4641 56.8418 30.7075C57.8102 29.9508 59.1031 29.5715 60.7204 29.5696C62.1009 29.5696 63.2378 29.8223 64.1311 30.3277V29.7963C64.1338 29.4036 64.049 29.0152 63.8829 28.6593C63.7168 28.3034 63.4736 27.9889 63.1709 27.7386C62.5561 27.1839 61.7549 26.8813 60.9269 26.891C59.6282 26.891 58.6006 27.4387 57.8439 28.5343L55.7963 27.2448C56.9227 25.6275 58.5895 24.8188 60.7969 24.8188ZM57.7891 33.815C57.7875 34.1109 57.8567 34.4028 57.9908 34.6666C58.1249 34.9303 58.3201 35.1582 58.5602 35.3312C59.0743 35.7356 59.7125 35.9499 60.3666 35.9377C61.3477 35.936 62.288 35.5455 62.9817 34.8518C63.7518 34.1269 64.1369 33.2764 64.1369 32.3002C63.412 31.7226 62.4012 31.4338 61.1045 31.4338C60.1601 31.4338 59.3727 31.6615 58.7421 32.1168C58.1053 32.5789 57.7891 33.1406 57.7891 33.815Z" fill="#5F6368"/>
<path d="M79.1213 25.2231L71.3584 43.0638H68.9584L71.8392 36.8214L66.7347 25.2231H69.2617L72.9511 34.1182H73.0016L76.59 25.2231H79.1213Z" fill="#5F6368"/>
<path d="M36.5435 28.6975C36.5443 27.989 36.4844 27.2818 36.3644 26.5835H26.5596V30.5877H32.1754C32.0605 31.2272 31.8172 31.8369 31.4604 32.3799C31.1035 32.9229 30.6404 33.388 30.0989 33.7472V36.3464H33.4504C35.4128 34.5371 36.5435 31.8613 36.5435 28.6975Z" fill="#4285F4"/>
<path d="M26.5596 38.8577C29.3653 38.8577 31.7277 37.9364 33.4504 36.348L30.0989 33.7488C29.1661 34.3813 27.9647 34.7423 26.5596 34.7423C23.8478 34.7423 21.5461 32.9142 20.723 30.4507H17.2704V33.1293C18.1357 34.8512 19.4626 36.2988 21.103 37.3103C22.7433 38.3219 24.6325 38.8576 26.5596 38.8577Z" fill="#34A853"/>
<path d="M20.723 30.4508C20.2879 29.1599 20.2879 27.762 20.723 26.4711V23.7925H17.2704C16.5424 25.241 16.1633 26.8398 16.1633 28.4609C16.1633 30.0821 16.5424 31.6808 17.2704 33.1294L20.723 30.4508Z" fill="#FBBC04"/>
<path d="M26.5596 22.1796C28.0423 22.1553 29.475 22.7155 30.548 23.7391L33.5154 20.7717C31.6337 19.0043 29.141 18.034 26.5596 18.0642C24.6325 18.0642 22.7433 18.6 21.103 19.6115C19.4626 20.623 18.1357 22.0706 17.2704 23.7925L20.723 26.4711C21.5461 24.0077 23.8478 22.1796 26.5596 22.1796Z" fill="#EA4335"/>
</g>
<defs>
<clipPath id="clip0_1_2258">
<rect width="62.9541" height="25" fill="white" transform="translate(16.1628 18.064)"/>
</clipPath>
</defs>
</svg>
