<svg width="132" height="61" viewBox="0 0 132 61" fill="none" xmlns="http://www.w3.org/2000/svg">
<rect y="0.563965" width="131.397" height="60" rx="10" fill="#F8F8F8"/>
<g clip-path="url(#clip0_1_2205)">
<path d="M48.0954 27.8402C48.0954 26.0571 46.3615 24.1633 43.361 24.1633C39.9916 24.1633 36.2902 26.635 35.7245 31.5662C35.1466 36.5465 38.2455 38.76 41.3689 38.76C44.4924 38.76 46.1279 37.5426 47.8003 35.9193C46.3615 34.1117 44.5047 34.9479 44.1481 35.1323C43.7546 35.3291 43.2504 35.5996 42.2174 35.5996C41.0123 35.5996 39.7826 35.0586 39.7826 32.8082C47.5052 32.0458 48.0954 29.6232 48.0954 27.8402ZM44.271 28.1353C44.2218 28.6887 44.0005 29.6355 40.09 30.1643C40.9139 27.2376 42.4879 27.0163 43.2135 27.0163C43.8898 27.0163 44.3202 27.545 44.271 28.1353ZM31.1869 28.6149C31.1869 28.6149 29.5268 33.8288 29.3915 34.2592C29.3424 33.8165 28.1249 24.4585 28.1249 24.4585C25.2966 24.4585 23.7841 26.4752 22.9848 28.6026C22.9848 28.6026 20.968 33.8288 20.7959 34.2715C20.7836 33.8657 20.4884 28.6641 20.4884 28.6641C20.3163 26.0571 17.9306 24.4708 16 24.4708L18.3364 38.6493C21.3 38.637 22.8987 36.6326 23.7349 34.5052C23.7349 34.5052 25.518 29.8938 25.5917 29.6847C25.604 29.8815 26.8706 38.6493 26.8706 38.6493C29.8465 38.6493 31.4452 36.7678 32.306 34.7142L36.4747 24.4708C33.5357 24.4708 31.9862 26.4752 31.1869 28.6149ZM59.0152 24.1387C57.183 24.1387 55.7811 25.1348 54.6006 26.5982V26.5859L55.6581 18.064C53.2233 18.064 51.2435 20.1791 50.8623 23.3271L49.0177 38.5386C50.4196 38.5386 51.9075 38.1328 52.7068 37.0999C53.4201 38.0222 54.4899 38.76 56.0762 38.76C60.1835 38.76 62.9995 33.9887 62.9995 29.5126C62.9749 25.4299 60.9951 24.1387 59.0152 24.1387ZM58.634 31.4555C58.2036 33.9518 56.8141 35.6488 55.4737 35.6488C54.121 35.6488 53.543 35.0463 53.543 35.0463C53.8013 32.8574 53.9611 31.517 54.453 30.3611C54.9449 29.2051 56.1131 27.3606 57.3305 27.3606C58.5234 27.3606 59.0644 28.9469 58.634 31.4555ZM73.2553 24.4708H70.3901L70.4024 24.3232C70.5991 22.454 71.0418 21.4703 72.5052 21.3104C73.5012 21.212 73.9439 20.6955 74.0546 20.1299C74.1407 19.6872 74.4112 18.15 74.4112 18.15C68.6562 18.1132 66.8485 20.5972 66.3812 24.3847L66.3689 24.4708H66.3074C65.3729 24.4708 64.3399 25.5283 64.1677 26.8687L64.1063 27.3606H66.0246L64.4137 40.666L63.9218 43.0517C63.9833 43.0517 64.0571 43.064 64.1185 43.064C66.8116 42.9656 68.5332 40.8382 68.9144 37.7516L70.1687 27.3606H71.0664C71.9518 27.3606 72.9848 26.4752 73.1692 24.9995L73.2553 24.4708ZM88.1594 24.2248C84.8515 24.2248 81.728 26.6596 80.7688 30.484C79.8096 34.3084 81.2607 38.8338 86.1303 38.8338C90.9877 38.8338 93.7914 34.124 93.7914 30.2012C93.7914 26.303 91.1476 24.2248 88.1594 24.2248ZM89.4998 31.3325C89.3276 33.0664 88.5652 35.698 86.4747 35.698C84.3719 35.698 84.667 32.6237 84.876 31.1604C85.0974 29.5986 85.9705 27.3729 87.8519 27.3729C89.5366 27.3729 89.6965 29.3773 89.4998 31.3325ZM110.134 28.6149C110.134 28.6149 108.474 33.8288 108.339 34.2592C108.29 33.8165 107.072 24.4585 107.072 24.4585C104.244 24.4585 102.731 26.4752 101.932 28.6026C101.932 28.6026 99.9154 33.8288 99.7432 34.2715C99.7309 33.8657 99.4358 28.6641 99.4358 28.6641C99.2637 26.0571 96.878 24.4708 94.9474 24.4708L97.2715 38.6493C100.235 38.637 101.834 36.6326 102.67 34.5052C102.67 34.5052 104.453 29.8938 104.515 29.6847C104.539 29.8815 105.793 38.6493 105.793 38.6493C108.769 38.6493 110.368 36.7678 111.229 34.7142L115.397 24.4708C112.471 24.4708 110.921 26.4752 110.134 28.6149ZM75.9607 18.15L73.5504 37.5918L73.0585 39.9897C73.12 39.9897 73.1938 40.002 73.2553 40.002C75.85 39.9651 77.6945 37.6901 78.0389 34.8249L79.4284 23.6714C79.8465 20.2651 77.8175 18.15 75.9607 18.15Z" fill="#3A60F8"/>
</g>
<defs>
<clipPath id="clip0_1_2205">
<rect width="99.3974" height="25" fill="white" transform="translate(16 18.064)"/>
</clipPath>
</defs>
</svg>
