<svg width="139" height="61" viewBox="0 0 139 61" fill="none" xmlns="http://www.w3.org/2000/svg">
<rect x="0.397446" y="0.563965" width="137.738" height="60" rx="10" fill="#F8F8F8"/>
<g clip-path="url(#clip0_1_2208)">
<path d="M39.2052 21.246C39.1848 21.0969 39.0546 21.0143 38.9465 21.0053C38.8393 20.9963 36.7386 20.9644 36.7386 20.9644C36.7386 20.9644 34.9818 19.2583 34.8082 19.0847C34.6347 18.9112 34.2957 18.9636 34.1639 19.0028C34.1623 19.0037 33.834 19.1052 33.2814 19.2763C33.1889 18.9767 33.053 18.6083 32.859 18.2382C32.2336 17.0446 31.3175 16.4134 30.2106 16.4118C30.209 16.4118 30.2082 16.4118 30.2065 16.4118C30.1296 16.4118 30.0534 16.4192 29.9765 16.4257C29.9438 16.3864 29.911 16.3479 29.8766 16.3103C29.3944 15.7945 28.7764 15.5432 28.0355 15.5653C26.6061 15.6062 25.1825 16.6386 24.0282 18.4724C23.2161 19.7626 22.598 21.3835 22.4228 22.6385C20.7814 23.1469 19.6336 23.5022 19.6082 23.5104C18.7797 23.7707 18.7535 23.7961 18.6455 24.5771C18.5653 25.1673 16.3974 41.9302 16.3974 41.9302L34.5643 45.0722L42.4381 43.1147C42.4381 43.1147 39.2257 21.395 39.2052 21.246ZM32.3719 19.5579C31.9536 19.6872 31.4779 19.8346 30.9622 19.9942C30.9515 19.2705 30.8656 18.2636 30.5283 17.3934C31.613 17.5989 32.1468 18.826 32.3719 19.5579ZM30.0117 20.289C29.0596 20.5837 28.0207 20.9054 26.9786 21.228C27.2717 20.1056 27.8275 18.9881 28.5103 18.2554C28.7641 17.9828 29.1194 17.6791 29.5401 17.5055C29.9356 18.3307 30.0215 19.499 30.0117 20.289ZM28.0641 16.5166C28.3998 16.5092 28.6822 16.5829 28.9237 16.7417C28.5373 16.9423 28.164 17.2305 27.8136 17.6062C26.9057 18.5804 26.2099 20.0925 25.9323 21.5513C25.067 21.819 24.2205 22.0818 23.4412 22.3225C23.9332 20.0262 25.8578 16.5804 28.0641 16.5166Z" fill="#95BF47"/>
<path d="M38.9473 21.0064C38.8401 20.9974 36.7394 20.9654 36.7394 20.9654C36.7394 20.9654 34.9826 19.2593 34.809 19.0858C34.7444 19.0211 34.6568 18.9875 34.5651 18.9736L34.5659 45.0716L42.4389 43.115C42.4389 43.115 39.2265 21.3961 39.2061 21.247C39.1855 21.098 39.0546 21.0154 38.9473 21.0064Z" fill="#5E8E3E"/>
<path d="M30.2008 25.0545L29.2864 28.4757C29.2864 28.4757 28.2663 28.0115 27.0572 28.0876C25.2839 28.1998 25.2651 29.3181 25.2832 29.5989C25.3797 31.1289 29.4051 31.463 29.631 35.047C29.8087 37.8665 28.1353 39.7953 25.7244 39.9475C22.8304 40.1301 21.2373 38.4232 21.2373 38.4232L21.8505 35.8149C21.8505 35.8149 23.4542 37.0249 24.7379 36.9439C25.5762 36.8907 25.8758 36.2087 25.8455 35.7265C25.7195 33.7306 22.4416 33.8485 22.2345 30.569C22.0601 27.8093 23.8726 25.0128 27.8717 24.7606C29.4124 24.6616 30.2008 25.0545 30.2008 25.0545Z" fill="white"/>
<path d="M52.8067 32.2181C51.9014 31.7268 51.4361 31.3127 51.4361 30.7435C51.4361 30.0193 52.0824 29.554 53.0917 29.554C54.2666 29.554 55.3157 30.0452 55.3157 30.0452L56.1431 27.5102C56.1431 27.5102 55.3823 26.915 53.1429 26.915C50.0265 26.915 47.8666 28.6997 47.8666 31.2088C47.8666 32.6314 48.8751 33.7178 50.2205 34.4932C51.307 35.1136 51.6951 35.5537 51.6951 36.2C51.6951 36.8724 51.1519 37.4156 50.1434 37.4156C48.6404 37.4156 47.2211 36.6393 47.2211 36.6393L46.3417 39.1743C46.3417 39.1743 47.6531 40.0537 49.8592 40.0537C53.0665 40.0537 55.3685 38.476 55.3685 35.6308C55.3677 34.1059 54.2041 33.0195 52.8067 32.2181Z" fill="black"/>
<path d="M65.5842 26.8901C64.0064 26.8901 62.7649 27.6404 61.8084 28.778L61.7564 28.752L63.127 21.5879H59.5575L56.092 39.8217H59.6614L60.851 33.589C61.3163 31.2351 62.5318 29.7873 63.6702 29.7873C64.4716 29.7873 64.7826 30.3305 64.7826 31.1067C64.7826 31.598 64.7306 32.1932 64.6275 32.6844L63.2829 39.8226H66.8525L68.2488 32.4514C68.4042 31.6751 68.5079 30.7446 68.5079 30.1234C68.5065 28.1057 67.4461 26.8901 65.5842 26.8901Z" fill="black"/>
<path d="M76.576 26.8901C72.282 26.8901 69.4379 30.7698 69.4379 35.0887C69.4379 37.856 71.1445 40.08 74.352 40.08C78.5678 40.08 81.4129 36.3043 81.4129 31.8814C81.4129 29.3212 79.9124 26.8901 76.576 26.8901ZM74.8173 37.3395C73.6016 37.3395 73.0842 36.3051 73.0842 35.0116C73.0842 32.9686 74.145 29.6322 76.0847 29.6322C77.352 29.6322 77.7652 30.7186 77.7652 31.7791C77.7652 33.9771 76.7058 37.3395 74.8173 37.3395Z" fill="black"/>
<path d="M90.5427 26.8901C88.1334 26.8901 86.7661 29.011 86.7661 29.011H86.715L86.922 27.0972H83.7666C83.6117 28.3907 83.3265 30.3557 83.0427 31.8303L80.5596 44.891H84.1291L85.1112 39.6147H85.1894C85.1894 39.6147 85.9217 40.08 87.2845 40.08C91.4742 40.08 94.2155 35.7871 94.2155 31.4413C94.2155 29.0371 93.1547 26.8901 90.5427 26.8901ZM87.1286 37.3907C86.2021 37.3907 85.6537 36.8734 85.6537 36.8734L86.2488 33.5371C86.6629 31.313 87.8265 29.8384 89.0683 29.8384C90.1547 29.8384 90.4906 30.8469 90.4906 31.8043C90.4906 34.1062 89.1199 37.3907 87.1286 37.3907Z" fill="black"/>
<path d="M99.3106 21.769C98.173 21.769 97.2676 22.6744 97.2676 23.838C97.2676 24.8984 97.9399 25.6227 98.9486 25.6227H99.0002C100.113 25.6227 101.069 24.8724 101.095 23.5538C101.095 22.5193 100.397 21.769 99.3106 21.769Z" fill="black"/>
<path d="M94.3192 39.8214H97.8878L100.32 27.1748H96.7241L94.3192 39.8214Z" fill="black"/>
<path d="M109.398 27.149H106.915L107.044 26.5539C107.251 25.3383 107.975 24.2519 109.165 24.2519C109.8 24.2519 110.302 24.433 110.302 24.433L111.001 21.6398C111.001 21.6398 110.38 21.3296 109.061 21.3296C107.793 21.3296 106.527 21.6917 105.569 22.5191C104.353 23.5536 103.784 25.0533 103.5 26.5539L103.397 27.149H101.742L101.224 29.8392H102.88L100.992 39.8225H104.562L106.45 29.8392H108.907L109.398 27.149Z" fill="black"/>
<path d="M117.984 27.1752C117.984 27.1752 115.753 32.7965 114.751 35.865H114.699C114.631 34.8768 113.82 27.1752 113.82 27.1752H110.069L112.217 38.7873C112.269 39.0455 112.243 39.2014 112.139 39.3824C111.725 40.1839 111.027 40.9602 110.199 41.5294C109.527 42.0206 108.777 42.3308 108.182 42.5378L109.165 45.5641C109.889 45.409 111.389 44.8138 112.656 43.6242C114.286 42.0985 115.786 39.7446 117.337 36.5373L121.708 27.1743H117.984V27.1752Z" fill="black"/>
</g>
<defs>
<clipPath id="clip0_1_2208">
<rect width="105.738" height="30" fill="white" transform="translate(16.3974 15.564)"/>
</clipPath>
</defs>
</svg>
